<svg xmlns="http://www.w3.org/2000/svg" viewBox="0 0 37.98 37.93"><defs><style>.cls-1{fill:#5091cd;}</style></defs><title>contacto-logo</title><g id="Layer_2" data-name="Layer 2"><g id="Capa_2" data-name="Capa 2"><path class="cls-1" d="M32.32,24.48a.56.56,0,0,0,.74-.74L31,18.93a7.79,7.79,0,0,0,2.52-5.6c0-4.52-4.23-8.24-9.55-8.47a10.27,10.27,0,0,0-9-4.86c-5.49,0-10,3.83-10,8.47a7.79,7.79,0,0,0,2.52,5.6L5.38,18.93a.52.52,0,0,0,.11.63.55.55,0,0,0,.63.12L12,16.59a8.75,8.75,0,0,0,2.46.34c2.12,3.78,7.21,5.72,12,4.46Zm-20.59-9L7.09,17.9l1.6-3.71a.54.54,0,0,0-.17-.69,6.8,6.8,0,0,1-2.46-5c0-4.07,4-7.33,8.87-7.33S23.8,4.46,23.8,8.47c0,5-5.9,8.58-11.67,7A.37.37,0,0,0,11.73,15.5Zm4.06,1.43c5.09-.4,9.15-4,9.15-8.46A7.11,7.11,0,0,0,24.48,6c4.41.4,7.84,3.54,7.84,7.32a6.58,6.58,0,0,1-2.46,5,.75.75,0,0,0-.17.69l1.6,3.72-4.63-2.41a1.13,1.13,0,0,0-.4-.05C22.31,21.39,17.9,20,15.79,16.93Z"/><path class="cls-1" d="M10.18,29.34H10A4.75,4.75,0,1,0,3.6,24.88a4.8,4.8,0,0,0,3.09,4.46H6.41A6.4,6.4,0,0,0,0,35.75V37.3a.54.54,0,0,0,.57.57H16a.54.54,0,0,0,.57-.57V35.75A6.38,6.38,0,0,0,10.18,29.34Zm-5.43-4.4a3.61,3.61,0,1,1,3.6,3.6A3.59,3.59,0,0,1,4.75,24.94ZM15.44,36.72H1.14v-1a5.25,5.25,0,0,1,5.27-5.26h3.71a5.25,5.25,0,0,1,5.27,5.26v1Z"/><path class="cls-1" d="M33.81,31.52a3.51,3.51,0,0,0,1.71-3,3.55,3.55,0,1,0-7.09,0,3.66,3.66,0,0,0,1.66,3,4.37,4.37,0,0,0-4.23,4.4v1.43a.54.54,0,0,0,.57.58h11a.54.54,0,0,0,.57-.58V35.92A4.4,4.4,0,0,0,33.81,31.52ZM32,26.08a2.41,2.41,0,1,1-2.41,2.41A2.36,2.36,0,0,1,32,26.08Zm4.86,10.64H27v-.85a3.25,3.25,0,0,1,3.26-3.26h3.32a3.26,3.26,0,0,1,3.26,3.26Z"/><path class="cls-1" d="M9.55,6.18a2.12,2.12,0,1,0,2.12,2.11A2.14,2.14,0,0,0,9.55,6.18Zm0,3.09a1,1,0,1,1,1-1A1,1,0,0,1,9.55,9.27Z"/><path class="cls-1" d="M17.05,8.29a2.12,2.12,0,1,0-2.12,2.12A2.11,2.11,0,0,0,17.05,8.29Zm-2.12,1a1,1,0,1,1,1-1A1,1,0,0,1,14.93,9.27Z"/><path class="cls-1" d="M20.36,10.41a2.12,2.12,0,1,0-2.11-2.12A2.11,2.11,0,0,0,20.36,10.41Zm0-3.09a1,1,0,1,1-1,1A1,1,0,0,1,20.36,7.32Z"/></g></g></svg>