<svg xmlns="http://www.w3.org/2000/svg" viewBox="0 0 35.67 35.62"><defs><style>.cls-1{fill:#fff;}</style></defs><title>contacto-logo-white</title><g id="Layer_2" data-name="Layer 2"><g id="Capa_2" data-name="Capa 2"><path class="cls-1" d="M30.35,23a.47.47,0,0,0,.59-.11.49.49,0,0,0,.11-.59l-1.93-4.51a7.37,7.37,0,0,0,2.36-5.26c0-4.25-4-7.74-9-7.95A9.64,9.64,0,0,0,14,0c-5.16,0-9.4,3.6-9.4,8A7.41,7.41,0,0,0,7,13.22L5.05,17.78a.49.49,0,0,0,.11.59.5.5,0,0,0,.59.11l5.53-2.9a8.48,8.48,0,0,0,2.31.32c2,3.55,6.77,5.37,11.23,4.19ZM11,14.56,6.66,16.81l1.51-3.49A.51.51,0,0,0,8,12.68,6.38,6.38,0,0,1,5.69,8C5.69,4.14,9.4,1.07,14,1.07S22.35,4.19,22.35,8c0,4.67-5.54,8.06-11,6.55A.34.34,0,0,0,11,14.56Zm3.82,1.34c4.78-.37,8.59-3.76,8.59-7.95A6.71,6.71,0,0,0,23,5.64C27.13,6,30.35,9,30.35,12.52A6.16,6.16,0,0,1,28,17.24a.73.73,0,0,0-.16.65l1.5,3.49L25,19.12a1,1,0,0,0-.37-.05C21,20.09,16.81,18.75,14.83,15.9Z"/><path class="cls-1" d="M9.56,27.56H9.4a4.46,4.46,0,1,0-6-4.19,4.52,4.52,0,0,0,2.91,4.19H6a6,6,0,0,0-6,6V35a.5.5,0,0,0,.54.53H15a.51.51,0,0,0,.54-.53V33.57A6,6,0,0,0,9.56,27.56Zm-5.1-4.14a3.39,3.39,0,1,1,3.38,3.39A3.4,3.4,0,0,1,4.46,23.42Zm10,11.07H1.07v-.92A4.94,4.94,0,0,1,6,28.63H9.51a4.93,4.93,0,0,1,4.94,4.94v.92Z"/><path class="cls-1" d="M31.75,29.6a3.28,3.28,0,0,0,1.61-2.85,3.33,3.33,0,1,0-6.66,0,3.43,3.43,0,0,0,1.56,2.85,4.1,4.1,0,0,0-4,4.14v1.34a.51.51,0,0,0,.54.54H35.13a.51.51,0,0,0,.54-.54V33.74A4.13,4.13,0,0,0,31.75,29.6ZM30,24.5a2.26,2.26,0,1,1-2.26,2.25A2.21,2.21,0,0,1,30,24.5Zm4.57,10H25.36v-.81a3.06,3.06,0,0,1,3.06-3.06h3.11a3.06,3.06,0,0,1,3.07,3.06Z"/><path class="cls-1" d="M9,5.8a2,2,0,1,0,2,2A2,2,0,0,0,9,5.8ZM9,8.7a.91.91,0,1,1,.91-.91A.9.9,0,0,1,9,8.7Z"/><path class="cls-1" d="M16,7.79a2,2,0,1,0-2,2A2,2,0,0,0,16,7.79ZM14,8.7a.91.91,0,1,1,.91-.91A.9.9,0,0,1,14,8.7Z"/><path class="cls-1" d="M19.12,9.78a2,2,0,1,0-2-2A2,2,0,0,0,19.12,9.78Zm0-2.9a.91.91,0,1,1-.91.91A.94.94,0,0,1,19.12,6.88Z"/></g></g></svg>