<svg xmlns="http://www.w3.org/2000/svg" viewBox="0 0 33.44 33.44"><defs><style>.cls-1{fill:#5091cd;}</style></defs><title>disponibles-logo</title><g id="Layer_2" data-name="Layer 2"><g id="Capa_2" data-name="Capa 2"><path class="cls-1" d="M24.32,4.71H19.4V3.5A.48.48,0,0,0,18.9,3H17.22V2.58A2.59,2.59,0,0,0,14.64,0H11A2.59,2.59,0,0,0,8.41,2.58v.36H6.74a.48.48,0,0,0-.51.5V4.66H1.82A1.81,1.81,0,0,0,0,6.48V31.56a1.82,1.82,0,0,0,1.82,1.83h22.5a1.82,1.82,0,0,0,1.82-1.83v-25A1.82,1.82,0,0,0,24.32,4.71ZM9.42,2.58A1.58,1.58,0,0,1,11,1h3.65a1.58,1.58,0,0,1,1.57,1.57v.36H9.42Zm9,1.42V6.74H7.24V4Zm6.74,27.61a.8.8,0,0,1-.81.81H1.82A.8.8,0,0,1,1,31.61V6.54a.81.81,0,0,1,.81-.82H6.23V7.19a.48.48,0,0,0,.51.51H18.9a.48.48,0,0,0,.5-.51V5.72h4.92a.81.81,0,0,1,.81.82Z"/><path class="cls-1" d="M31.36,9.42H29.79a2.08,2.08,0,0,0-2.08,2.08V25.89L30,33.08a.52.52,0,0,0,.51.36.64.64,0,0,0,.51-.36l2.38-7.19V11.5A2.06,2.06,0,0,0,31.36,9.42Zm-2.58,4.71h3.64v11H28.78Zm1-3.69h1.57a1.06,1.06,0,0,1,1.06,1.06v1.67H28.78V11.5A1,1,0,0,1,29.79,10.44Zm.81,20.87L29,26.24h3.29Z"/><path class="cls-1" d="M5.12,17.33a3.24,3.24,0,1,0,3.24,3.24A3.27,3.27,0,0,0,5.12,17.33Zm0,5.47a2.23,2.23,0,1,1,2.23-2.23A2.23,2.23,0,0,1,5.12,22.8Z"/><path class="cls-1" d="M6.08,19.4,4.56,20.67l-.36-.61a.47.47,0,0,0-.65-.1.5.5,0,0,0-.16.71l.66,1.11a.58.58,0,0,0,.36.26.54.54,0,0,0,.4-.1l2-1.68a.49.49,0,0,0,0-.7A.53.53,0,0,0,6.08,19.4Z"/><path class="cls-1" d="M5.12,24.52a3.24,3.24,0,1,0,3.24,3.24A3.27,3.27,0,0,0,5.12,24.52Zm0,5.52a2.23,2.23,0,1,1,2.23-2.23A2.25,2.25,0,0,1,5.12,30Z"/><path class="cls-1" d="M6.08,26.65,4.56,27.91l-.36-.6a.44.44,0,0,0-.65-.16.5.5,0,0,0-.16.71L4.05,29a.6.6,0,0,0,.36.25.54.54,0,0,0,.4-.1l2-1.67a.5.5,0,0,0,0-.71A.51.51,0,0,0,6.08,26.65Z"/><path class="cls-1" d="M23.81,19.15H10.13a.51.51,0,0,0,0,1H23.81a.51.51,0,1,0,0-1Z"/><path class="cls-1" d="M23.81,23.76H10.13a.51.51,0,0,0,0,1H23.81a.48.48,0,0,0,.51-.5A.51.51,0,0,0,23.81,23.76Z"/><path class="cls-1" d="M23.81,28.42H10.13a.51.51,0,0,0,0,1H23.81a.51.51,0,1,0,0-1Z"/><path class="cls-1" d="M5.22,15.15h15.2a.48.48,0,0,0,.5-.51V9.93a.48.48,0,0,0-.5-.51H5.22a.48.48,0,0,0-.51.51v4.71A.51.51,0,0,0,5.22,15.15Zm.5-4.71H19.91v3.69H5.72Z"/></g></g></svg>