<svg xmlns="http://www.w3.org/2000/svg" xmlns:xlink="http://www.w3.org/1999/xlink" viewBox="0 0 152.9 72.53"><defs><style>.cls-1{fill:none;}.cls-2{fill:#43525b;}.cls-3{fill:#88bd48;}.cls-4{fill:#5091cd;}.cls-5{clip-path:url(#clip-path);}.cls-6{fill:#59a1d8;}</style><clipPath id="clip-path" transform="translate(-0.1)"><path class="cls-1" d="M1.59,39.08c1.18,4.58-1.31,8.27-.49,11.8C2.7,57.27,5.57,62.72,4.76,64.5,10.27,65.26,6.86,54,6.86,54L19,65.88s1.76,1.72,3.18.54c1.13-.93-.32-2.53-.32-2.53l-9.26-10.2.72-.59,12.12,12a2,2,0,0,0,2.72.09,1.61,1.61,0,0,0,0-2.32L16.44,50.06l.63-.68L27.7,59.71s1.52,1.51,2.78.24-.17-2.59-.17-2.59L19.67,46l.51-.78,8.38,7.71s1.52,1.48,2.68.26-.33-2.54-.33-2.54L19.59,39.08Zm34.86,0V70.79a4.92,4.92,0,0,0,3.48,1.74H40c1.38,0,3-.75,4.73-2.61,5.79-6.12,7.37-7.35,14.58-11.38,8.34-4.65,1.45-11.71-.82-12.66,2.07.59,9.64-.4,8.55-6.8ZM46.57,4.49a12,12,0,0,0-3.66.6c-3.06,1-5.11.91-6.46.51V33.45C61.53,33.45,59.76,20,66.86,20,63.77,9.1,52.61,18.51,49.74,21.52c8-9.09,4.16-17-3.17-17h0M22.51,2.61C16.72,8.73,15.14,10,7.93,14-.4,18.64,6.48,25.7,8.75,26.65c-2.07-.59-10.12.59-8.55,6.8H30.83V1.74A4.88,4.88,0,0,0,27.3,0c-1.4,0-3,.73-4.79,2.61"/></clipPath></defs><title>federacion-logo</title><g id="Layer_2" data-name="Layer 2"><g id="Capa_2" data-name="Capa 2"><polygon class="cls-2" points="85.91 26.67 85.91 27.55 81.41 27.55 81.41 30.68 84.75 30.68 84.75 31.56 81.41 31.56 81.41 36.01 80.37 36.01 80.37 26.67 85.91 26.67"/><polygon class="cls-2" points="92.95 26.67 92.95 27.55 88.39 27.55 88.39 30.68 91.63 30.68 91.63 31.56 88.39 31.56 88.39 35.13 93.21 35.13 93.21 36.01 87.35 36.01 87.35 26.67 92.95 26.67"/><path class="cls-2" d="M94.83,26.67h2.51c2.54,0,4.22,1.6,4.22,4.67,0,2.74-1.47,4.67-4.27,4.67H94.83Zm1,8.46h1.39c2.15,0,3.27-1.28,3.27-3.79,0-2.73-1.3-3.79-3.21-3.79H95.87Z" transform="translate(-0.1)"/><polygon class="cls-2" points="108.77 26.67 108.77 27.55 104.2 27.55 104.2 30.68 107.45 30.68 107.45 31.56 104.2 31.56 104.2 35.13 109.03 35.13 109.03 36.01 103.17 36.01 103.17 26.67 108.77 26.67"/><path class="cls-2" d="M110.65,36V26.67h3c2,0,3.12.9,3.12,2.46a2.42,2.42,0,0,1-1.87,2.43l2,4.45h-1.12l-1.89-4.24h-2.19V36Zm1-5.12h1.88c1.42,0,2.17-.53,2.17-1.71s-.85-1.63-2.18-1.63h-1.87Z" transform="translate(-0.1)"/><path class="cls-2" d="M118.16,36,121,26.67h1.54L125.45,36h-1.09l-.88-2.92h-3.35L119.25,36Zm2.23-3.8h2.83l-1.35-4.82h-.14Z" transform="translate(-0.1)"/><path class="cls-2" d="M132.81,33.22c-.42,1.73-1.37,2.92-3.29,2.92-2.1,0-3.57-1.53-3.57-4.8,0-3,1.32-4.8,3.57-4.8a3.09,3.09,0,0,1,3.16,2.72l-1,.28c-.34-1.32-.93-2.12-2.33-2.12s-2.4,1.24-2.4,3.92,1.06,3.92,2.61,3.92,2-1.09,2.28-2.23Z" transform="translate(-0.1)"/><rect class="cls-2" x="134.36" y="26.67" width="1.04" height="9.34"/><path class="cls-2" d="M141,26.54c2.29,0,3.65,1.68,3.65,4.8s-1.36,4.8-3.65,4.8-3.65-1.68-3.65-4.8,1.36-4.8,3.65-4.8m0,8.72c1.65,0,2.62-1.27,2.62-3.92s-1-3.92-2.62-3.92-2.61,1.27-2.61,3.92,1,3.92,2.61,3.92m1.74-10.92-1.7,1.84h-.87l1.16-1.84Z" transform="translate(-0.1)"/><polygon class="cls-2" points="146.35 36.01 146.35 26.67 147.84 26.67 151.92 33.86 151.97 33.86 151.97 26.67 152.9 26.67 152.9 36.01 152.05 36.01 147.31 27.68 147.28 27.68 147.28 36.01 146.35 36.01"/><polygon class="cls-2" points="80.67 48.95 80.67 39.61 81.71 39.61 81.71 48.07 86.14 48.07 86.14 48.95 80.67 48.95"/><path class="cls-2" d="M88.39,39.61v6.6a2.26,2.26,0,0,0,4.48,0v-6.6h1v6.52c0,1.87-1.35,2.95-3.28,2.95S87.36,48,87.36,46.13V39.61Z" transform="translate(-0.1)"/><polygon class="cls-2" points="99.05 40.49 99.05 48.95 98.01 48.95 98.01 40.49 95.22 40.49 95.22 39.61 101.84 39.61 101.84 40.49 99.05 40.49"/><polygon class="cls-2" points="108.85 39.61 108.85 40.49 104.28 40.49 104.28 43.62 107.53 43.62 107.53 44.5 104.28 44.5 104.28 48.07 109.11 48.07 109.11 48.95 103.24 48.95 103.24 39.61 108.85 39.61"/><path class="cls-2" d="M110.72,49V39.61h3c2,0,3.12.91,3.12,2.46A2.42,2.42,0,0,1,115,44.5L117,49h-1.12L114,44.71h-2.19V49Zm1-5.12h1.88c1.42,0,2.17-.53,2.17-1.71s-.85-1.63-2.19-1.63h-1.86Z" transform="translate(-0.1)"/><path class="cls-2" d="M118.24,49l2.87-9.34h1.54L125.52,49h-1.08L123.56,46H120.2L119.32,49Zm2.22-3.8h2.84L122,40.34h-.14Z" transform="translate(-0.1)"/><polygon class="cls-2" points="126.85 48.95 126.85 39.61 128.34 39.61 132.41 46.8 132.46 46.8 132.46 39.61 133.4 39.61 133.4 48.95 132.54 48.95 127.81 40.62 127.78 40.62 127.78 48.95 126.85 48.95"/><path class="cls-2" d="M134.91,49l2.87-9.34h1.54L142.2,49h-1.09L140.23,46h-3.35L136,49Zm2.23-3.8H140l-1.35-4.81h-.14Z" transform="translate(-0.1)"/><polygon class="cls-2" points="88.44 61.9 88.44 53.35 88.4 53.35 85.78 61.9 84.98 61.9 82.36 53.35 82.32 53.35 82.32 61.9 81.39 61.9 81.39 52.55 82.99 52.55 85.37 60.11 85.4 60.11 87.74 52.55 89.37 52.55 89.37 61.9 88.44 61.9"/><path class="cls-2" d="M92.79,52.55v6.6a2.26,2.26,0,0,0,4.48,0v-6.6h1v6.52c0,1.87-1.35,3-3.27,3s-3.28-1.08-3.28-3V52.55Z" transform="translate(-0.1)"/><polygon class="cls-2" points="100.49 61.9 100.49 52.55 101.97 52.55 106.05 59.75 106.1 59.75 106.1 52.55 107.03 52.55 107.03 61.9 106.18 61.9 101.44 53.56 101.42 53.56 101.42 61.9 100.49 61.9"/><path class="cls-2" d="M109.38,52.55h2.51c2.53,0,4.22,1.61,4.22,4.67,0,2.75-1.48,4.68-4.27,4.68h-2.46Zm1,8.47h1.4c2.15,0,3.26-1.29,3.26-3.8,0-2.73-1.29-3.79-3.21-3.79h-1.45Z" transform="translate(-0.1)"/><rect class="cls-2" x="117.82" y="52.55" width="1.04" height="9.34"/><path class="cls-2" d="M120.46,61.9l2.88-9.35h1.54l2.87,9.35h-1.09L125.78,59h-3.35l-.88,2.93Zm2.23-3.81h2.83l-1.34-4.81H124Z" transform="translate(-0.1)"/><polygon class="cls-2" points="129.07 61.9 129.07 52.55 130.11 52.55 130.11 61.02 134.53 61.02 134.53 61.9 129.07 61.9"/><path class="cls-3" d="M67.08,33.45s-8.16,0-8.16-4.83c0,0,6.67-1.36,8.16,4.83" transform="translate(-0.1)"/><path class="cls-3" d="M67.16,22.37c.32,0-.64,5.34-5,5.43,0,0,.07-5.33,5-5.43" transform="translate(-0.1)"/><path class="cls-3" d="M60.14,33.45s-4.84.29-5.71-3c0,0,4.49-1.16,5.71,3" transform="translate(-0.1)"/><path class="cls-4" d="M.2,33.45c-1.08-6.4,6.48-7.39,8.55-6.8a1.19,1.19,0,0,0,.23.07,1.19,1.19,0,0,1-.23-.07C6.48,25.7-.4,18.64,7.93,14c7.21-4,8.79-5.26,14.58-11.38,3.58-3.77,6.42-2.9,8.32-.87V33.45Z" transform="translate(-0.1)"/><path class="cls-4" d="M67.08,39.08c1.09,6.4-6.48,7.39-8.55,6.8l-.22-.07.22.07c2.27.95,9.16,8,.82,12.66-7.2,4-8.79,5.26-14.58,11.38-3.58,3.78-6.42,2.9-8.32.87V39.08Z" transform="translate(-0.1)"/><path class="cls-4" d="M42.91,5.09C52.42,2,59,11,49.74,21.52c2.87-3,14-12.42,17.12-1.53-7.1,0-5.33,13.46-30.41,13.46V5.6c1.35.4,3.4.48,6.46-.51" transform="translate(-0.1)"/><path class="cls-4" d="M30.91,50.65s1.37,1.45.33,2.54-2.68-.26-2.68-.26l-8.38-7.71-.51.78L30.31,57.36s1.34,1.42.17,2.59-2.78-.24-2.78-.24L17.07,49.38l-.63.68L28.2,62.86a1.61,1.61,0,0,1,0,2.32,2,2,0,0,1-2.72-.09l-12.12-12-.72.59,9.26,10.2s1.45,1.6.32,2.53C20.77,67.6,19,65.88,19,65.88L6.86,54s3.42,11.22-2.1,10.46c.81-1.78-2.06-7.23-3.66-13.62-.82-3.53,1.67-7.22.49-11.8h18Z" transform="translate(-0.1)"/><g class="cls-5"><path class="cls-6" d="M12,36.27A21.66,21.66,0,1,0,33.64,14.61,21.66,21.66,0,0,0,12,36.27" transform="translate(-0.1)"/></g></g></g></svg>