<svg xmlns="http://www.w3.org/2000/svg" viewBox="0 0 34.26 34.26"><defs><style>.cls-1{fill:#5091cd;}</style></defs><title>guardadas-logo</title><g id="Layer_2" data-name="Layer 2"><g id="Capa_2" data-name="Capa 2"><path class="cls-1" d="M24.92,4.83h-5V3.58a.49.49,0,0,0-.52-.52H17.65V2.65A2.65,2.65,0,0,0,15,0H11.27A2.65,2.65,0,0,0,8.62,2.65V3H6.9a.49.49,0,0,0-.51.52V4.78H1.87A1.86,1.86,0,0,0,0,6.65V32.34a1.86,1.86,0,0,0,1.87,1.87H24.92a1.86,1.86,0,0,0,1.87-1.87V6.7A1.86,1.86,0,0,0,24.92,4.83ZM9.66,2.65A1.62,1.62,0,0,1,11.27,1H15a1.62,1.62,0,0,1,1.61,1.61V3H9.66ZM18.85,4.1V6.9H7.42V4.1Zm6.9,28.3a.82.82,0,0,1-.83.83h-23A.82.82,0,0,1,1,32.4V6.7a.82.82,0,0,1,.83-.83H6.39v1.5a.49.49,0,0,0,.51.52H19.36a.49.49,0,0,0,.52-.52V5.87h5a.82.82,0,0,1,.83.83Z"/><path class="cls-1" d="M32.14,9.66H30.53a2.13,2.13,0,0,0-2.13,2.12V26.53l2.39,7.37a.51.51,0,0,0,.52.36.61.61,0,0,0,.51-.36l2.44-7.37V11.78A2.1,2.1,0,0,0,32.14,9.66Zm-2.65,4.82h3.74V25.8H29.49Zm1-3.79h1.61a1.1,1.1,0,0,1,1.09,1.09V13.5H29.49V11.78A1.06,1.06,0,0,1,30.53,10.69Zm.83,21.39L29.7,26.89h3.37Z"/><path class="cls-1" d="M11.89,20.4l.73,1.2a.63.63,0,0,0,.36.26h.1a.55.55,0,0,0,.31-.11l2.13-1.81a.5.5,0,0,0,.05-.73.49.49,0,0,0-.72-.05l-1.66,1.4-.42-.68a.51.51,0,0,0-.73-.15A.54.54,0,0,0,11.89,20.4Z"/><path class="cls-1" d="M10.33,21.08a3.51,3.51,0,1,0,3.43-4.16,3.41,3.41,0,0,0-1,.16,3.53,3.53,0,0,0-3-1.56,3.1,3.1,0,0,0,1.46-2.64,3.12,3.12,0,1,0-6.23,0,3.23,3.23,0,0,0,1.4,2.64A3.65,3.65,0,0,0,2.8,19.16v1.45a.49.49,0,0,0,.52.52h7Zm5.92-.73a2.47,2.47,0,1,1-2.49-2.44A2.45,2.45,0,0,1,16.25,20.35Zm-8-9.66a2.08,2.08,0,1,1-2.07,2.08A2.05,2.05,0,0,1,8.2,10.69ZM3.84,19.1a2.61,2.61,0,0,1,2.6-2.59H9.76a2.45,2.45,0,0,1,2,1,3.42,3.42,0,0,0-1.55,2.59H3.84Z"/><path class="cls-1" d="M23.05,25H4a.52.52,0,0,0,0,1h19.1a.52.52,0,1,0,0-1Z"/><path class="cls-1" d="M23,28H3.84a.52.52,0,0,0,0,1H23a.49.49,0,0,0,.52-.52A.52.52,0,0,0,23,28Z"/><path class="cls-1" d="M22.84,31H3.74a.52.52,0,0,0,0,1h19.1a.52.52,0,0,0,0-1Z"/><path class="cls-1" d="M23.31,11.63h-8.1a.52.52,0,1,0,0,1h8.1a.52.52,0,1,0,0-1Z"/><path class="cls-1" d="M23.31,14.54h-8.1a.52.52,0,1,0,0,1h8.1a.49.49,0,0,0,.52-.51A.52.52,0,0,0,23.31,14.54Z"/></g></g></svg>