<svg xmlns="http://www.w3.org/2000/svg" viewBox="0 0 41.34 39.22"><defs><style>.cls-1{fill:#fff;}</style></defs><title>Asset 14</title><g id="Layer_2" data-name="Layer 2"><g id="Capa_2" data-name="Capa 2"><path class="cls-1" d="M25.61,39.22h8.85a1.85,1.85,0,0,0,1.82-1.82V21H39.5a1.88,1.88,0,0,0,1.72-1.15,1.85,1.85,0,0,0-.47-2L21.92.47a1.89,1.89,0,0,0-2.5,0L.59,17.84a1.85,1.85,0,0,0-.47,2A1.76,1.76,0,0,0,1.84,21H5.06V37.4a1.85,1.85,0,0,0,1.82,1.82h8.85a1.84,1.84,0,0,0,1.82-1.82V26.27h6.24V37.4A1.84,1.84,0,0,0,25.61,39.22Zm-8.32-15A1.84,1.84,0,0,0,15.47,26V37.14H7.14V20.76a1.84,1.84,0,0,0-1.82-1.82H2.46L20.67,2.13,38.88,18.94H36a1.84,1.84,0,0,0-1.82,1.82V37.14H25.87V26a1.84,1.84,0,0,0-1.82-1.82Z"/></g></g></svg>