<svg xmlns="http://www.w3.org/2000/svg" xmlns:xlink="http://www.w3.org/1999/xlink" viewBox="0 0 116.46 120.93"><defs><style>.cls-1{fill:none;}.cls-2{fill:#43525b;}.cls-3{fill:#88bd48;}.cls-4{fill:#5091cd;}.cls-5{clip-path:url(#clip-path);}.cls-6{fill:#59a1d8;}</style><clipPath id="clip-path"><path class="cls-1" d="M50.56,39.24c1.18,4.61-1.32,8.31-.5,11.85,1.61,6.42,4.49,11.89,3.68,13.68,5.54.77,2.11-10.51,2.11-10.51l12.2,11.9s1.77,1.72,3.2.54c1.13-.93-.33-2.54-.33-2.54l-9.3-10.24.73-.59,12.17,12a2,2,0,0,0,2.73.09,1.63,1.63,0,0,0,0-2.34L65.47,50.28l.63-.69L76.77,60s1.53,1.5,2.8.24-.17-2.61-.17-2.61L68.71,46.2l.51-.79,8.42,7.75s1.52,1.48,2.69.26S80,50.86,80,50.86L68.63,39.24Zm35,0V71.09a4.92,4.92,0,0,0,3.5,1.75h.1c1.39,0,3-.75,4.76-2.63,5.81-6.14,7.4-7.38,14.64-11.42,8.37-4.67,1.45-11.76-.83-12.71,2.09.59,9.68-.41,8.59-6.84ZM95.72,4.51a11.79,11.79,0,0,0-3.67.61c-3.08,1-5.13.91-6.49.5v28c25.19,0,23.41-13.53,30.54-13.53-3.1-10.93-14.31-1.48-17.19,1.54,8-9.13,4.18-17.1-3.19-17.1h0M71.56,2.63C65.75,8.77,64.16,10,56.92,14.05c-8.37,4.67-1.45,11.76.83,12.71-2.09-.59-10.17.6-8.59,6.84H79.92V1.75A4.9,4.9,0,0,0,76.37,0c-1.4,0-3,.73-4.81,2.63"/></clipPath></defs><title>Asset 20</title><g id="Layer_2" data-name="Layer 2"><g id="Capa_2" data-name="Capa 2"><polygon class="cls-2" points="6.05 82.29 6.05 83.25 1.13 83.25 1.13 86.67 4.78 86.67 4.78 87.64 1.13 87.64 1.13 92.5 0 92.5 0 82.29 6.05 82.29"/><polygon class="cls-2" points="13.75 82.29 13.75 83.25 8.76 83.25 8.76 86.67 12.3 86.67 12.3 87.64 8.76 87.64 8.76 91.54 14.03 91.54 14.03 92.5 7.62 92.5 7.62 82.29 13.75 82.29"/><path class="cls-2" d="M15.7,82.29h2.74c2.77,0,4.61,1.75,4.61,5.1,0,3-1.61,5.11-4.67,5.11H15.7Zm1.13,9.25h1.52c2.35,0,3.57-1.4,3.57-4.15,0-3-1.42-4.14-3.51-4.14H16.83Z"/><polygon class="cls-2" points="31.03 82.29 31.03 83.25 26.04 83.25 26.04 86.67 29.59 86.67 29.59 87.64 26.04 87.64 26.04 91.54 31.31 91.54 31.31 92.5 24.91 92.5 24.91 82.29 31.03 82.29"/><path class="cls-2" d="M33,92.5V82.29h3.28c2.21,0,3.41,1,3.41,2.69a2.66,2.66,0,0,1-2,2.66L39.8,92.5H38.57L36.5,87.86H34.11V92.5Zm1.13-5.6h2c1.56,0,2.38-.58,2.38-1.87s-.94-1.78-2.39-1.78h-2Z"/><path class="cls-2" d="M41.19,92.5l3.14-10.21H46L49.15,92.5H48l-1-3.2H43.34l-1,3.2Zm2.43-4.16h3.1l-1.47-5.26h-.16Z"/><path class="cls-2" d="M57.2,89.45c-.45,1.89-1.5,3.19-3.59,3.19-2.29,0-3.91-1.67-3.91-5.25,0-3.32,1.45-5.24,3.91-5.24,1.89,0,3,1.1,3.45,3L56,85.43c-.37-1.44-1-2.32-2.55-2.32s-2.63,1.36-2.63,4.28,1.16,4.29,2.86,4.29,2.18-1.19,2.49-2.43Z"/><rect class="cls-2" x="59" y="82.29" width="1.13" height="10.21"/><path class="cls-2" d="M66.18,82.15c2.5,0,4,1.84,4,5.24s-1.48,5.25-4,5.25-4-1.84-4-5.25,1.48-5.24,4-5.24m0,9.53C68,91.68,69,90.29,69,87.39S68,83.11,66.18,83.11s-2.86,1.39-2.86,4.28,1.06,4.29,2.86,4.29m1.89-11.94-1.85,2h-1l1.26-2Z"/><polygon class="cls-2" points="72.11 92.5 72.11 82.29 73.73 82.29 78.19 90.15 78.24 90.15 78.24 82.29 79.26 82.29 79.26 92.5 78.33 92.5 73.15 83.39 73.12 83.39 73.12 92.5 72.11 92.5"/><polygon class="cls-2" points="12.75 106.64 12.75 96.43 13.88 96.43 13.88 105.68 18.72 105.68 18.72 106.64 12.75 106.64"/><path class="cls-2" d="M21.09,96.43v7.22a2.19,2.19,0,0,0,2.44,2.17A2.19,2.19,0,0,0,26,103.65V96.43h1.13v7.13c0,2-1.47,3.23-3.58,3.23S20,105.6,20,103.56V96.43Z"/><polygon class="cls-2" points="32.83 97.39 32.83 106.64 31.7 106.64 31.7 97.39 28.65 97.39 28.65 96.43 35.89 96.43 35.89 97.39 32.83 97.39"/><polygon class="cls-2" points="43.54 96.43 43.54 97.39 38.55 97.39 38.55 100.82 42.1 100.82 42.1 101.78 38.55 101.78 38.55 105.68 43.83 105.68 43.83 106.64 37.42 106.64 37.42 96.43 43.54 96.43"/><path class="cls-2" d="M45.49,106.64V96.43h3.28c2.21,0,3.41,1,3.41,2.69a2.65,2.65,0,0,1-2,2.66l2.17,4.86H51.08L49,102H46.62v4.63Zm1.13-5.6h2.05c1.56,0,2.38-.58,2.38-1.86s-.93-1.78-2.39-1.78h-2Z"/><path class="cls-2" d="M53.7,106.64l3.14-10.21h1.68l3.14,10.21H60.48l-1-3.19H55.85l-1,3.19Zm2.43-4.15h3.1l-1.47-5.26H57.6Z"/><polygon class="cls-2" points="63.21 106.64 63.21 96.43 64.84 96.43 69.3 104.3 69.35 104.3 69.35 96.43 70.37 96.43 70.37 106.64 69.44 106.64 64.26 97.54 64.23 97.54 64.23 106.64 63.21 106.64"/><path class="cls-2" d="M71.92,106.64l3.14-10.21h1.68l3.14,10.21H78.7l-1-3.19H74.07l-1,3.19Zm2.43-4.15h3.1L76,97.23h-.16Z"/><polygon class="cls-2" points="28.91 120.79 28.91 111.45 28.87 111.45 26.01 120.79 25.14 120.79 22.27 111.45 22.22 111.45 22.22 120.79 21.21 120.79 21.21 110.58 22.96 110.58 25.56 118.84 25.59 118.84 28.15 110.58 29.93 110.58 29.93 120.79 28.91 120.79"/><path class="cls-2" d="M33.56,110.58v7.21A2.19,2.19,0,0,0,36,120a2.19,2.19,0,0,0,2.45-2.18v-7.21h1.13v7.12c0,2-1.47,3.23-3.58,3.23s-3.58-1.19-3.58-3.23v-7.12Z"/><polygon class="cls-2" points="42.08 120.79 42.08 110.58 43.71 110.58 48.16 118.44 48.22 118.44 48.22 110.58 49.24 110.58 49.24 120.79 48.3 120.79 43.13 111.68 43.1 111.68 43.1 120.79 42.08 120.79"/><path class="cls-2" d="M51.69,110.58h2.75c2.77,0,4.61,1.75,4.61,5.1,0,3-1.62,5.11-4.67,5.11H51.69Zm1.13,9.25h1.53c2.35,0,3.57-1.4,3.57-4.15,0-3-1.42-4.14-3.51-4.14H52.82Z"/><rect class="cls-2" x="61.02" y="110.58" width="1.13" height="10.21"/><path class="cls-2" d="M63.81,120.79,67,110.58h1.68l3.14,10.21H70.58l-1-3.2H66l-1,3.2Zm2.43-4.16h3.1l-1.47-5.26h-.16Z"/><polygon class="cls-2" points="73.32 120.79 73.32 110.58 74.45 110.58 74.45 119.83 79.29 119.83 79.29 120.79 73.32 120.79"/><path class="cls-3" d="M116.32,33.6s-8.19,0-8.19-4.86c0,0,6.7-1.37,8.19,4.86"/><path class="cls-3" d="M116.4,22.46c.32,0-.64,5.37-5.08,5.46,0,0,.08-5.35,5.08-5.46"/><path class="cls-3" d="M109.36,33.6s-4.87.29-5.74-3c0,0,4.5-1.17,5.74,3"/><path class="cls-4" d="M49.16,33.6c-1.09-6.43,6.5-7.43,8.59-6.84l.22.08-.22-.08c-2.28-1-9.2-8-.83-12.71,7.24-4,8.83-5.28,14.64-11.42,3.6-3.8,6.45-2.92,8.36-.88V33.6Z"/><path class="cls-4" d="M116.32,39.24c1.09,6.43-6.5,7.43-8.59,6.84a1,1,0,0,0-.22-.08,1,1,0,0,1,.22.08c2.28,1,9.2,8,.83,12.71-7.24,4-8.83,5.28-14.64,11.42-3.59,3.8-6.45,2.92-8.36.88V39.24Z"/><path class="cls-4" d="M92.05,5.12c9.55-3.07,16.15,5.94,6.86,16.49,2.88-3,14.09-12.47,17.19-1.53-7.13,0-5.35,13.52-30.54,13.52v-28c1.36.41,3.41.49,6.49-.5"/><path class="cls-4" d="M80,50.86s1.37,1.46.33,2.56-2.69-.26-2.69-.26l-8.42-7.75-.51.79L79.4,57.6s1.34,1.43.17,2.61-2.8-.24-2.8-.24L66.1,49.59l-.63.69,11.8,12.84a1.63,1.63,0,0,1,0,2.34,2,2,0,0,1-2.73-.09l-12.17-12-.73.59,9.3,10.24s1.46,1.61.33,2.54c-1.43,1.18-3.2-.54-3.2-.54l-12.2-11.9s3.43,11.28-2.11,10.51c.81-1.79-2.07-7.26-3.68-13.68-.82-3.54,1.68-7.24.5-11.85H68.63Z"/><g class="cls-5"><path class="cls-6" d="M61,36.42A21.75,21.75,0,1,0,82.74,14.67,21.75,21.75,0,0,0,61,36.42"/></g></g></g></svg>