<svg xmlns="http://www.w3.org/2000/svg" viewBox="0 0 31.26 33.65"><defs><style>.cls-1{fill:#fff;}.cls-2,.cls-3{fill:none;stroke-linecap:round;stroke-miterlimit:10;}.cls-2{stroke:#59a1d8;}.cls-3{stroke:#fff;}</style></defs><title>quienes-somos-logo-white</title><g id="Layer_2" data-name="Layer 2"><g id="Capa_2" data-name="Capa 2"><path class="cls-1" d="M30.7,15.56S27,15.56,27,13.38c0,0,3-.61,3.68,2.18"/><path class="cls-1" d="M30.73,10.57A2.49,2.49,0,0,1,28.46,13s0-2.39,2.27-2.44"/><path class="cls-1" d="M27.57,15.56s-2.18.13-2.57-1.35a2.09,2.09,0,0,1,2.57,1.35"/><path class="cls-2" d="M.59,15.56C.1,12.68,3.51,12.23,4.44,12.5l.1,0-.1,0c-1-.43-4.12-3.61-.37-5.7a20.55,20.55,0,0,0,6.56-5.12c1.61-1.7,2.9-1.31,3.75-.4V15.56Z"/><path class="cls-2" d="M30.7,18.09c.48,2.88-2.92,3.33-3.85,3.06l-.1,0,.1,0c1,.43,4.12,3.61.37,5.7A20.59,20.59,0,0,0,20.65,32c-1.61,1.7-2.89,1.31-3.74.4V18.09Z"/><path class="cls-2" d="M19.82,2.79c4.28-1.37,7.24,2.67,3.07,7.4,1.29-1.36,6.32-5.59,7.71-.69-3.2,0-2.4,6.06-13.69,6.06V3a4.9,4.9,0,0,0,2.91-.23"/><path class="cls-2" d="M14.42,23.3s.61.65.14,1.14-1.2-.11-1.2-.11L9.58,20.86l-.22.35,4.79,5.11s.6.64.07,1.17S13,27.38,13,27.38L8.18,22.73,7.9,23l5.29,5.75a.73.73,0,0,1,0,1.05.89.89,0,0,1-1.22,0L6.5,24.4l-.32.27,4.17,4.59s.65.72.14,1.14-1.43-.24-1.43-.24L3.59,24.82s1.54,5.06-.95,4.71C3,28.73,1.72,26.28,1,23.4c-.36-1.59.76-3.25.23-5.31h8.1Z"/><path class="cls-3" d="M1.22,18.09C1.75,20.15.63,21.81,1,23.4c.73,2.88,2,5.33,1.65,6.13,2.49.35.95-4.71.95-4.71l5.47,5.34s.79.77,1.43.24-.14-1.14-.14-1.14L6.18,24.67l.32-.27L12,29.8a.89.89,0,0,0,1.22,0,.73.73,0,0,0,0-1.05L7.9,23l.28-.31L13,27.38s.68.68,1.25.11-.07-1.17-.07-1.17L9.36,21.21l.22-.35,3.78,3.47s.68.66,1.2.11-.14-1.14-.14-1.14l-5.1-5.21Zm15.69,0V32.37a2.21,2.21,0,0,0,1.57.78h0A3.11,3.11,0,0,0,20.65,32a20.59,20.59,0,0,1,6.57-5.12c3.75-2.09.65-5.27-.37-5.69.93.26,4.33-.19,3.85-3.07ZM21.46,2.52a5.51,5.51,0,0,0-1.64.27A4.9,4.9,0,0,1,16.91,3V15.56C28.2,15.56,27.4,9.5,30.6,9.5c-1.39-4.9-6.42-.67-7.71.69,3.6-4.1,1.88-7.67-1.43-7.67h0M10.63,1.68A20.55,20.55,0,0,1,4.07,6.8c-3.75,2.09-.65,5.27.37,5.7-.93-.27-4.56.26-3.85,3.06H14.38V1.28A2.22,2.22,0,0,0,12.79.5a3.1,3.1,0,0,0-2.16,1.18"/></g></g></svg>